<svg xmlns="http://www.w3.org/2000/svg" width="94" height="102" fill="none" viewBox="0 0 94 102">
  <g clip-path="url(#a)">
    <path fill="#17529D" fill-rule="evenodd" d="M38.844 101.12c4.323-4.034 11.89-19.962 12.652-31.475 0-5.572-.614-15.012-10.914-16.096-4.559 3.672-34.958 21.26-38.77-12.134A47.688 47.688 0 0 0 0 54.478c0 23.341 16.772 42.738 38.844 46.642Zm11.696.587c24.343-1.803 43.537-22.26 43.537-47.229a47.384 47.384 0 0 0-16.22-35.78c-14.195 15.504-22 22.451-25.331 25.417-1.514 1.347-2.105 1.872-1.952 2.005 15.788 13.757 11.187 39.739-.034 55.587Zm19.464-88.57C65.646 18.27 5.029 88.622 9.164 26.39c8.565-11.688 22.34-19.27 37.875-19.27 8.34 0 16.173 2.186 22.965 6.018ZM37.816 36.68c0 3.846-3.098 6.964-6.918 6.964-3.82 0-6.917-3.118-6.917-6.964 0-3.847 3.097-6.965 6.917-6.965s6.918 3.118 6.918 6.965Z" clip-rule="evenodd"/>
    <ellipse cx="80.704" cy="7.893" fill="#FECA04" rx="7.84" ry="7.893"/>
  </g>
  <defs>
    <clipPath id="a">
      <path fill="#fff" d="M0 0h94v102H0z"/>
    </clipPath>
  </defs>
</svg>
