<svg xmlns="http://www.w3.org/2000/svg" width="92" height="92" fill="none" viewBox="0 0 92 92">
  <path fill="#fff" d="M0 0h92v92H0z"/>
  <path stroke="#000" stroke-linecap="round" stroke-linejoin="round" stroke-width="3" d="M10.8 89.197C13.451 90 17.033 90 23.12 90h45.76c6.087 0 9.669 0 12.32-.803m-70.4 0a9.636 9.636 0 0 1-1.593-.636 13.2 13.2 0 0 1-5.768-5.768C2 79.969 2 76.273 2 68.88V23.12c0-7.393 0-11.089 1.439-13.913A13.2 13.2 0 0 1 9.207 3.44C12.031 2 15.727 2 23.12 2h45.76c7.393 0 11.089 0 13.913 1.439a13.2 13.2 0 0 1 5.768 5.768C90 12.031 90 15.727 90 23.12v45.76c0 7.393 0 11.089-1.439 13.913a13.2 13.2 0 0 1-5.768 5.768 9.639 9.639 0 0 1-1.593.636m-70.4 0c.002-3.561.023-5.446.338-7.03a17.6 17.6 0 0 1 13.828-13.829C26.666 68 28.711 68 32.8 68h26.4c4.089 0 6.133 0 7.834.338a17.6 17.6 0 0 1 13.828 13.828c.315 1.585.336 3.47.338 7.03M63.6 35c0 9.72-7.88 17.6-17.6 17.6-9.72 0-17.6-7.88-17.6-17.6 0-9.72 7.88-17.6 17.6-17.6 9.72 0 17.6 7.88 17.6 17.6Z"/>
</svg>
